<?xml version="1.0"?>
<svg xmlns="http://www.w3.org/2000/svg" xmlns:xlink="http://www.w3.org/1999/xlink" xmlns:svgjs="http://svgjs.com/svgjs" version="1.1" width="512" height="512" x="0" y="0" viewBox="0 0 24 24" style="enable-background:new 0 0 512 512" xml:space="preserve" class=""><g><g xmlns="http://www.w3.org/2000/svg"><g><path d="m15.5 20c-.128 0-.256-.049-.354-.146-.195-.195-.195-.512 0-.707l6.646-6.646-9.292-9.294-9.293 9.293 6.646 6.646c.195.195.195.512 0 .707s-.512.195-.707 0l-7-7c-.195-.195-.195-.512 0-.707l10-10c.195-.195.512-.195.707 0l10 10c.195.195.195.512 0 .707l-7 7c-.097.098-.225.147-.353.147z" fill="#6416a9" data-original="#000000" style="" class=""/></g></g><g xmlns="http://www.w3.org/2000/svg"><g><path d="m21.5 20h-19c-.276 0-.5-.224-.5-.5s.224-.5.5-.5h19c.276 0 .5.224.5.5s-.224.5-.5.5z" fill="#6416a9" data-original="#000000" style="" class=""/></g></g></g></svg>
