<?xml version="1.0" encoding="iso-8859-1"?>
<!-- Generator: Adobe Illustrator 19.0.0, SVG Export Plug-In . SVG Version: 6.00 Build 0)  -->
<svg xmlns="http://www.w3.org/2000/svg" xmlns:xlink="http://www.w3.org/1999/xlink" version="1.1" id="Layer_1" x="0px" y="0px" viewBox="0 0 512 512" style="enable-background:new 0 0 512 512;" xml:space="preserve" width="512" height="512">
<g>
	<circle style="fill:#FFB64C;" cx="256" cy="256" r="256"/>
	<path style="fill:#FF9100;" d="M340.212,131.77l-91.888,91.888l-31.672-31.672L87.335,321.303l50.109,50.109l-30.297,30.297   l106.839,106.839C227.658,510.806,241.688,512,256,512c126.447,0,231.468-91.68,252.251-212.191L340.212,131.77z"/>
	<g>
		<polygon style="fill:#FF637B;" points="424.691,281.762 404.922,301.531 107.078,301.531 87.309,281.762 126.846,182.92     385.154,182.92   "/>
		<polygon style="fill:#E63950;" points="424.691,281.762 404.922,301.531 256,301.531 256,182.92 385.154,182.92   "/>
		<rect x="107.078" y="301.531" style="fill:#FF637B;" width="297.844" height="100.16"/>
		<rect x="256" y="301.531" style="fill:#E63950;" width="148.922" height="100.16"/>
		<polygon style="fill:#FFF5F5;" points="370.657,162.163 293.56,239.26 224.371,239.26 161.112,176 272.803,64.309   "/>
		<polygon style="fill:#EFE2DD;" points="293.56,239.26 256,239.26 256,81.112 272.803,64.309 370.657,162.163   "/>
		<rect x="87.309" y="281.762" style="fill:#E63950;" width="337.381" height="39.537"/>
		<rect x="256" y="281.762" style="fill:#AE2538;" width="168.691" height="39.537"/>
		<rect x="167.042" y="222.457" style="fill:#895D3C;" width="177.916" height="19.768"/>
		<rect x="256" y="222.457" style="fill:#714C2F;" width="88.958" height="19.768"/>
		<polygon style="fill:#4BB9EC;" points="302.455,160.186 256,206.839 229.313,179.954 243.15,166.116 256,178.768 288.618,146.348       "/>
		<polygon style="fill:#0095FF;" points="302.455,160.186 256,206.839 256,178.768 288.618,146.348   "/>
	</g>
</g>















</svg>
